<svg xmlns="http://www.w3.org/2000/svg" viewBox="0 0 125.46 58.51"><defs><style>.cls-1{isolation:isolate;}.cls-2{fill:#17ccc2;}</style></defs><title>Ресурс 1</title><g id="Слой_2" data-name="Слой 2"><g id="Слой_1-2" data-name="Слой 1"><g class="cls-1"><path class="cls-2" d="M7.64,6a9.88,9.88,0,0,1,4.65.82C15.57,8.38,16.5,12,16.5,15.38c0,4-1.1,8.72-4,11.68a9.47,9.47,0,0,1-7.14,2.72H.82L3.75,6ZM6.29,25.42c4.07,0,5.5-6.08,5.5-9.29,0-2.68-.61-5.82-3.9-6L6,25.42Z" transform="translate(-0.82 -5.95)"/><path class="cls-2" d="M32.65,23.7a7.12,7.12,0,0,1-1.21,3.65c-1.5,2.1-4.15,2.82-6.65,2.82-3.46,0-6.14-1.47-6.14-5.25a14.63,14.63,0,0,1,.18-1.86L20.93,6h4.65L23.65,21.77a15.5,15.5,0,0,0-.18,1.79c0,1.36.46,2.32,2,2.32,2.5,0,2.54-2.21,2.79-4.11L30.19,6h4.64Z" transform="translate(-0.82 -5.95)"/><path class="cls-2" d="M48.05,10.31H44.4L42,29.78H37.37l2.39-19.47H36.12L36.65,6H48.58Z" transform="translate(-0.82 -5.95)"/><path class="cls-2" d="M58.3,19.59,57,29.78H52.37l1.25-10.19L49.69,6H54.8L56,11.42c.18.75.43,2.67.5,3.25.46-1.33.85-2.22,1.35-3.36L60.23,6h5.18Z" transform="translate(-0.82 -5.95)"/><path class="cls-2" d="M84.38,10.34H79.66l-.61,5.08h4.22L82.73,20H78.48l-1.21,9.83H72.62L75.55,6h9.36Z" transform="translate(-0.82 -5.95)"/><path class="cls-2" d="M92.84,6a8.62,8.62,0,0,1,5,1.14,5.79,5.79,0,0,1,2.1,4.83,7.77,7.77,0,0,1-4.14,7l2.75,10.83H93.66l-2.78-11-1.36,11H84.88L87.81,6ZM91.2,16.2a4.23,4.23,0,0,0,.71,0c2.32,0,3.47-1.82,3.47-4,0-1.71-.75-2.6-2.5-2.6H92Z" transform="translate(-0.82 -5.95)"/><path class="cls-2" d="M113.24,10.38h-4.68l-.64,5.14h4.14l-.57,4.5h-4.11l-.68,5.36h4.75l-.53,4.4h-9.4L104.45,6h9.32Z" transform="translate(-0.82 -5.95)"/><path class="cls-2" d="M125.74,10.38h-4.68l-.64,5.14h4.14L124,20h-4.11l-.67,5.36H124l-.54,4.4H114L117,6h9.33Z" transform="translate(-0.82 -5.95)"/></g><g class="cls-1"><path d="M9.39,40.24a6.51,6.51,0,0,1,3.83.79,5.9,5.9,0,0,1,2.5,5.25c0,5.29-3.9,8.39-9,8L5.47,64.07H.82L3.75,40.24Zm-2,10.08c2.54,0,3.68-1.22,3.68-3.72,0-1.71-.57-2.53-2.36-2.53H7.93l-.79,6.25Z" transform="translate(-0.82 -5.95)"/><path d="M27.83,44.67H23.15l-.64,5.15h4.14l-.57,4.5H22l-.68,5.36H26l-.53,4.39h-9.4L19,40.24h9.32Z" transform="translate(-0.82 -5.95)"/><path d="M36.58,40.24a8.58,8.58,0,0,1,5,1.15,5.75,5.75,0,0,1,2.11,4.82,7.78,7.78,0,0,1-4.14,7l2.75,10.82H37.4l-2.79-11-1.35,11H28.61l2.93-23.83ZM34.94,50.5a5.62,5.62,0,0,0,.71,0c2.32,0,3.47-1.82,3.47-4,0-1.72-.75-2.61-2.5-2.61h-.9Z" transform="translate(-0.82 -5.95)"/><path d="M57,44.64H52.3l-.61,5.07h4.22l-.54,4.54H51.12L49.9,64.07H45.26l2.93-23.83h9.36Z" transform="translate(-0.82 -5.95)"/><path d="M72.16,58a7,7,0,0,1-1.22,3.64c-1.5,2.11-4.14,2.82-6.64,2.82-3.47,0-6.14-1.46-6.14-5.25a16.69,16.69,0,0,1,.17-1.86l2.11-17.11h4.65L63.16,56.07A15.33,15.33,0,0,0,63,57.85c0,1.36.46,2.33,2,2.33,2.5,0,2.54-2.22,2.79-4.11l2-15.83h4.65Z" transform="translate(-0.82 -5.95)"/><path d="M95.2,64.07H90.45l.93-17.15A48,48,0,0,1,90,52.42l-3.5,11.65H83c-.32-4-.72-8-.9-12,0-1.18-.14-2.4-.14-3.57,0-.54,0-1,.07-1.58L79.16,64.07h-5l5-23.83h6.11l.57,14.08,3.61-14.08h6.21Z" transform="translate(-0.82 -5.95)"/><path d="M109.49,44.67h-4.68l-.64,5.15h4.14l-.57,4.5h-4.11L103,59.68h4.75l-.53,4.39h-9.4l2.93-23.83H110Z" transform="translate(-0.82 -5.95)"/></g></g></g></svg>